<?xml version="1.0" standalone="no"?>
<!DOCTYPE svg PUBLIC "-//W3C//DTD SVG 20010904//EN"
 "http://www.w3.org/TR/2001/REC-SVG-20010904/DTD/svg10.dtd">
<svg version="1.0" xmlns="http://www.w3.org/2000/svg"
 width="500.000000pt" height="500.000000pt" viewBox="0 0 500.000000 500.000000"
 preserveAspectRatio="xMidYMid meet">
<metadata>
Created by potrace 1.16, written by Peter Selinger 2001-2019
</metadata>
<g transform="translate(0.000000,500.000000) scale(0.100000,-0.100000)"
fill="#000000" stroke="none">
<path d="M830 3405 l0 -1335 345 0 345 0 0 -206 c0 -191 1 -205 18 -200 9 3
40 10 67 16 28 6 207 47 399 91 191 44 349 79 351 77 2 -2 -39 -185 -91 -408
-52 -223 -94 -411 -94 -417 0 -10 89 -13 413 -13 l414 0 -97 420 c-53 231 -94
420 -91 420 7 0 790 -179 814 -186 16 -5 17 9 17 200 l0 206 345 0 345 0 0
1335 0 1335 -1750 0 -1750 0 0 -1335z m1650 1117 l0 -99 -164 -9 -165 -9 -3
93 c-2 52 1 96 6 99 9 6 174 19 269 22 l57 1 0 -98z m493 81 c4 -2 7 -46 7
-98 l0 -93 -157 5 c-87 2 -164 6 -170 8 -9 3 -13 32 -13 101 l0 96 163 -7 c89
-4 165 -9 170 -12z m382 -44 c71 -11 130 -21 132 -23 5 -4 -32 -181 -37 -180
-3 0 -69 9 -147 19 l-143 19 0 97 0 98 33 -5 c17 -2 90 -14 162 -25z m-1367
-76 l-3 -97 -144 -23 c-79 -13 -146 -22 -148 -19 -6 6 -37 175 -32 180 6 6
270 54 302 55 l28 1 -3 -97z m816 -120 c3 -21 6 -65 6 -98 l0 -60 -235 -1
-235 -1 0 99 0 98 229 0 228 0 7 -37z m321 11 c88 -9 163 -18 167 -20 5 -3 8
-48 8 -100 l0 -96 -27 6 c-42 9 -340 36 -395 36 l-48 0 0 100 0 99 68 -5 c37
-3 139 -12 227 -20z m-815 -11 c0 -16 3 -58 6 -95 l7 -66 -54 -6 c-30 -3 -132
-15 -226 -26 -95 -11 -178 -20 -183 -20 -7 0 -10 35 -8 97 l3 98 55 8 c99 15
294 35 348 36 50 1 52 0 52 -26z m1100 -23 c37 -1 42 -14 30 -81 -18 -110 -18
-109 -48 -109 -70 0 -72 3 -72 107 l0 96 38 -7 c20 -3 44 -6 52 -6z m-1587
-92 c3 -51 2 -97 -3 -101 -4 -5 -25 -11 -47 -14 l-40 -5 -18 91 c-10 51 -16
93 -14 95 3 3 48 13 110 25 3 0 9 -41 12 -91z m737 -163 c0 -92 -1 -95 -22
-95 -50 -1 -326 -20 -380 -26 l-58 -7 0 101 0 100 113 9 c61 6 165 11 230 11
l117 2 0 -95z m486 82 c9 -8 16 -184 8 -189 -5 -3 -111 0 -236 5 l-228 10 0
95 0 95 226 -6 c124 -3 228 -7 230 -10z m222 -24 c129 -15 142 -19 142 -37 0
-33 -22 -151 -30 -159 -6 -7 -134 2 -257 19 l-43 6 0 94 c0 111 -21 102 188
77z m-1198 -91 l0 -97 -132 -18 c-73 -9 -140 -17 -149 -17 -13 0 -20 19 -30
83 -8 45 -14 87 -14 92 0 9 234 52 298 54 l27 1 0 -98z m438 -332 c23 -10 42
-23 42 -27 0 -4 7 -16 15 -27 13 -17 15 -16 45 17 64 73 137 73 415 1 150 -38
200 -47 303 -51 l122 -6 0 -658 0 -657 -28 -7 c-47 -10 -247 14 -426 50 -197
41 -288 45 -346 15 -21 -11 -46 -30 -54 -42 l-16 -22 -16 22 c-8 12 -33 31
-54 42 -58 30 -148 26 -343 -14 -179 -37 -375 -60 -426 -50 l-31 7 0 657 0
657 123 6 c100 4 154 13 302 50 99 25 191 48 205 50 61 11 127 6 168 -13z
m-958 -830 l0 -670 470 0 c307 0 470 -3 470 -10 0 -7 -168 -10 -485 -10 l-485
0 0 680 c0 598 2 680 15 680 13 0 15 -81 15 -670z m30 21 l0 -650 47 -7 c75
-11 317 4 489 31 148 23 332 33 368 19 10 -4 16 -18 16 -40 l0 -34 -467 2
-468 3 -3 663 c-1 439 1 662 8 662 7 0 10 -220 10 -649z m40 4 c0 -567 -2
-645 -15 -645 -13 0 -15 78 -15 645 0 567 2 645 15 645 13 0 15 -78 15 -645z
m50 0 c0 -638 0 -645 -20 -645 -20 0 -20 7 -20 645 0 638 0 645 20 645 20 0
20 -7 20 -645z m30 9 l0 -637 123 6 c77 3 190 19 307 41 236 46 330 46 379 0
11 -10 5 -10 -25 1 -61 22 -136 18 -360 -21 -115 -19 -262 -38 -326 -41 l-118
-6 0 647 c0 424 3 646 10 646 7 0 10 -219 10 -636z m1780 -10 l0 -647 -117 6
c-65 3 -212 22 -327 41 -223 38 -299 43 -358 22 -51 -18 -48 -10 5 14 60 28
141 25 320 -9 213 -41 284 -51 376 -51 l81 0 0 635 c0 417 3 635 10 635 7 0
10 -222 10 -646z m90 2 l0 -644 -40 0 -40 -1 0 645 0 644 40 0 40 0 0 -644z
m30 -21 l0 -665 -470 0 -470 0 0 35 c0 31 3 35 36 41 54 10 244 -2 389 -25
148 -24 378 -37 448 -27 l47 7 0 650 c0 426 3 649 10 649 7 0 10 -228 10 -665z
m40 -15 l0 -680 -485 0 c-317 0 -485 3 -485 10 0 7 163 10 470 10 l470 0 0
670 c0 589 2 670 15 670 13 0 15 -82 15 -680z"/>
<path d="M2221 3486 c-42 -96 -76 -86 287 -86 244 0 322 3 329 13 5 6 19 36
31 65 l21 52 -324 0 -324 0 -20 -44z"/>
<path d="M2176 3372 c-2 -4 -14 -31 -25 -60 l-21 -52 325 0 c179 0 325 2 325
4 0 2 11 29 25 60 l25 56 -325 0 c-178 0 -326 -4 -329 -8z"/>
<path d="M2798 3265 c-10 -22 -17 -24 -91 -27 l-79 -3 -18 -45 c-35 -90 -35
-90 -1 -90 l30 0 -29 -66 c-17 -36 -30 -67 -30 -68 0 -2 19 -8 43 -15 55 -17
104 -55 124 -97 l17 -34 55 133 c31 73 60 138 65 146 6 10 23 12 62 8 l53 -5
35 89 c20 49 36 91 36 94 0 3 -59 5 -130 5 -129 0 -131 0 -142 -25z"/>
<path d="M2276 3200 c-9 -22 -16 -45 -16 -50 0 -6 58 -10 149 -10 l149 0 16
40 c9 22 16 45 16 50 0 6 -58 10 -149 10 l-149 0 -16 -40z"/>
<path d="M2241 3108 c-5 -13 -11 -33 -15 -45 l-7 -23 151 0 c166 0 152 -6 174
68 l7 22 -151 0 c-147 0 -151 -1 -159 -22z"/>
<path d="M2206 3011 c-3 -4 -10 -20 -15 -35 l-11 -26 154 0 c138 0 154 2 159
18 2 9 8 25 12 35 7 16 -4 17 -143 17 -83 0 -153 -4 -156 -9z"/>
<path d="M2161 2899 c-6 -18 -11 -34 -11 -36 0 -2 68 -2 152 -1 l152 3 13 33
13 32 -154 0 -154 0 -11 -31z"/>
<path d="M2129 2814 c-5 -15 -12 -31 -15 -35 -3 -5 64 -9 149 -9 l155 0 11 31
c6 18 11 34 11 35 0 2 -68 4 -150 4 l-150 0 -11 -26z"/>
<path d="M2096 2728 c-13 -49 -14 -48 142 -48 l149 0 10 35 11 35 -153 0
c-150 0 -153 0 -159 -22z"/>
<path d="M2090 2641 c0 -36 23 -42 174 -44 80 -1 146 1 146 5 0 4 -5 19 -12
33 l-11 25 -149 0 c-138 0 -148 -1 -148 -19z"/>
<path d="M2140 2575 c0 -2 13 -11 30 -20 41 -21 394 -22 445 -1 19 8 35 17 35
20 0 4 -115 6 -255 6 -140 0 -255 -2 -255 -5z"/>
</g>
</svg>
